<?xml version="1.0" encoding="UTF-8"?>
<svg width="19px" height="18px" viewBox="0 0 19 18" version="1.1" xmlns="http://www.w3.org/2000/svg" xmlns:xlink="http://www.w3.org/1999/xlink">
    <defs></defs>
    <g id="Components" stroke="none" stroke-width="1" fill-rule="evenodd">
        <g id="PlanSettingsCard" transform="translate(-55.000000, -178.000000)">
            <g transform="translate(20.000000, 20.000000)" id="Write">
                <g transform="translate(20.000000, 148.000000)">
                    <path d="M24.3896643,10 C23.7751593,10 23.2290162,10.3960853 23.0398944,10.9812923 L21.4765877,15.790282 L16.4196926,15.790282 C15.8051876,15.790282 15.2590444,16.1863673 15.0699227,16.7717622 C14.8791106,17.3560302 15.0879521,17.9966403 15.5850776,18.3585447 L19.6768319,21.3320952 L18.1135252,26.1418361 C17.9227132,26.7261041 18.1315547,27.3667143 18.6286802,27.7286187 C18.8780881,27.9096648 19.1714428,28 19.4632951,28 C19.7566499,28 20.0501925,27.9096648 20.2979101,27.7286187 L24.3896643,24.755256 L28.4814185,27.7286187 C28.7291362,27.9096648 29.0226787,28 29.3160335,28 C29.6078858,28 29.9012405,27.9096648 30.1506484,27.7286187 C30.6477739,27.3667143 30.8564277,26.7261041 30.6658034,26.1408971 L29.1024968,21.3320952 L33.1957534,18.3594837 C33.6928789,17.9983306 33.9017205,17.3577204 33.7109084,16.7725134 C33.5200964,16.1873063 32.9756435,15.7910333 32.3609507,15.7910333 L27.3027409,15.7910333 L25.7394342,10.9812923 C25.5486222,10.3960853 25.0041693,10.0007512 24.3896643,10 L24.3896643,10 L24.3896643,10 Z" id="Shape"></path>
                </g>
            </g>
        </g>
    </g>
</svg>